<mxfile host="app.diagrams.net" agent="Mozilla/5.0 (Windows NT 10.0; Win64; x64) AppleWebKit/537.36 (KHTML, like Gecko) Chrome/136.0.0.0 Safari/537.36" version="27.0.5">
  <diagram name="Page-1" id="DiC_E4t_Tefp0vZ_V-7J">
    <mxGraphModel dx="2180" dy="1465" grid="0" gridSize="10" guides="1" tooltips="1" connect="1" arrows="1" fold="1" page="1" pageScale="1" pageWidth="1654" pageHeight="1169" math="0" shadow="0">
      <root>
        <mxCell id="0" />
        <mxCell id="1" parent="0" />
        <mxCell id="fz--Rf1uVpx8tUPwJMlL-14" value="Team" style="whiteSpace=wrap;html=1;align=center;" parent="1" vertex="1">
          <mxGeometry x="1081" y="669" width="100" height="40" as="geometry" />
        </mxCell>
        <mxCell id="fz--Rf1uVpx8tUPwJMlL-15" value="Game" style="whiteSpace=wrap;html=1;align=center;" parent="1" vertex="1">
          <mxGeometry x="570" y="669" width="100" height="40" as="geometry" />
        </mxCell>
        <mxCell id="fz--Rf1uVpx8tUPwJMlL-21" value="Game Details" style="whiteSpace=wrap;html=1;align=center;" parent="1" vertex="1">
          <mxGeometry x="140" y="669" width="100" height="40" as="geometry" />
        </mxCell>
        <mxCell id="fz--Rf1uVpx8tUPwJMlL-24" value="Ranking" style="whiteSpace=wrap;html=1;align=center;" parent="1" vertex="1">
          <mxGeometry x="1427" y="669" width="100" height="40" as="geometry" />
        </mxCell>
        <mxCell id="fz--Rf1uVpx8tUPwJMlL-26" value="team_id" style="ellipse;whiteSpace=wrap;html=1;align=center;fontStyle=4;" parent="1" vertex="1">
          <mxGeometry x="931" y="789" width="100" height="40" as="geometry" />
        </mxCell>
        <mxCell id="fz--Rf1uVpx8tUPwJMlL-28" value="" style="endArrow=none;html=1;rounded=0;exitX=0.5;exitY=0;exitDx=0;exitDy=0;entryX=0.5;entryY=1;entryDx=0;entryDy=0;" parent="1" source="fz--Rf1uVpx8tUPwJMlL-26" target="fz--Rf1uVpx8tUPwJMlL-14" edge="1">
          <mxGeometry relative="1" as="geometry">
            <mxPoint x="1191" y="999" as="sourcePoint" />
            <mxPoint x="1351" y="999" as="targetPoint" />
            <Array as="points">
              <mxPoint x="981" y="779" />
              <mxPoint x="1131" y="779" />
            </Array>
          </mxGeometry>
        </mxCell>
        <mxCell id="fz--Rf1uVpx8tUPwJMlL-30" value="start_year" style="ellipse;whiteSpace=wrap;html=1;align=center;" parent="1" vertex="1">
          <mxGeometry x="991" y="839" width="100" height="40" as="geometry" />
        </mxCell>
        <mxCell id="fz--Rf1uVpx8tUPwJMlL-31" value="end_year" style="ellipse;whiteSpace=wrap;html=1;align=center;" parent="1" vertex="1">
          <mxGeometry x="1011" y="919" width="100" height="40" as="geometry" />
        </mxCell>
        <mxCell id="fz--Rf1uVpx8tUPwJMlL-32" value="" style="endArrow=none;html=1;rounded=0;entryX=0.5;entryY=1;entryDx=0;entryDy=0;exitX=0.5;exitY=0;exitDx=0;exitDy=0;" parent="1" source="fz--Rf1uVpx8tUPwJMlL-30" edge="1">
          <mxGeometry relative="1" as="geometry">
            <mxPoint x="1031" y="859" as="sourcePoint" />
            <mxPoint x="1131" y="709" as="targetPoint" />
            <Array as="points">
              <mxPoint x="1041" y="829" />
              <mxPoint x="1131" y="829" />
            </Array>
          </mxGeometry>
        </mxCell>
        <mxCell id="fz--Rf1uVpx8tUPwJMlL-33" value="" style="endArrow=none;html=1;rounded=0;exitX=0.5;exitY=0;exitDx=0;exitDy=0;" parent="1" source="fz--Rf1uVpx8tUPwJMlL-31" edge="1">
          <mxGeometry relative="1" as="geometry">
            <mxPoint x="1061" y="909" as="sourcePoint" />
            <mxPoint x="1131" y="739" as="targetPoint" />
            <Array as="points">
              <mxPoint x="1061" y="899" />
              <mxPoint x="1131" y="899" />
              <mxPoint x="1131" y="819" />
            </Array>
          </mxGeometry>
        </mxCell>
        <mxCell id="fz--Rf1uVpx8tUPwJMlL-34" value="abbreviation" style="ellipse;whiteSpace=wrap;html=1;align=center;" parent="1" vertex="1">
          <mxGeometry x="1196" y="829" width="100" height="40" as="geometry" />
        </mxCell>
        <mxCell id="fz--Rf1uVpx8tUPwJMlL-35" value="" style="endArrow=none;html=1;rounded=0;entryX=0.5;entryY=1;entryDx=0;entryDy=0;exitX=0.5;exitY=0;exitDx=0;exitDy=0;" parent="1" source="fz--Rf1uVpx8tUPwJMlL-34" edge="1">
          <mxGeometry relative="1" as="geometry">
            <mxPoint x="1321" y="829" as="sourcePoint" />
            <mxPoint x="1131" y="739" as="targetPoint" />
            <Array as="points">
              <mxPoint x="1246" y="809" />
              <mxPoint x="1131" y="809" />
            </Array>
          </mxGeometry>
        </mxCell>
        <mxCell id="fz--Rf1uVpx8tUPwJMlL-37" value="team_name" style="ellipse;whiteSpace=wrap;html=1;align=center;" parent="1" vertex="1">
          <mxGeometry x="1196" y="749" width="100" height="40" as="geometry" />
        </mxCell>
        <mxCell id="fz--Rf1uVpx8tUPwJMlL-39" value="" style="endArrow=none;html=1;rounded=0;exitX=0.5;exitY=0;exitDx=0;exitDy=0;entryX=0.5;entryY=1;entryDx=0;entryDy=0;" parent="1" source="fz--Rf1uVpx8tUPwJMlL-37" target="fz--Rf1uVpx8tUPwJMlL-14" edge="1">
          <mxGeometry relative="1" as="geometry">
            <mxPoint x="1191" y="999" as="sourcePoint" />
            <mxPoint x="1351" y="999" as="targetPoint" />
            <Array as="points">
              <mxPoint x="1246" y="729" />
              <mxPoint x="1131" y="729" />
            </Array>
          </mxGeometry>
        </mxCell>
        <mxCell id="fz--Rf1uVpx8tUPwJMlL-40" value="city" style="ellipse;whiteSpace=wrap;html=1;align=center;" parent="1" vertex="1">
          <mxGeometry x="881" y="739" width="100" height="40" as="geometry" />
        </mxCell>
        <mxCell id="fz--Rf1uVpx8tUPwJMlL-41" value="" style="endArrow=none;html=1;rounded=0;exitX=0.5;exitY=0;exitDx=0;exitDy=0;entryX=0.5;entryY=1;entryDx=0;entryDy=0;" parent="1" source="fz--Rf1uVpx8tUPwJMlL-40" target="fz--Rf1uVpx8tUPwJMlL-14" edge="1">
          <mxGeometry relative="1" as="geometry">
            <mxPoint x="1191" y="999" as="sourcePoint" />
            <mxPoint x="1351" y="999" as="targetPoint" />
            <Array as="points">
              <mxPoint x="931" y="729" />
              <mxPoint x="1131" y="729" />
            </Array>
          </mxGeometry>
        </mxCell>
        <mxCell id="fz--Rf1uVpx8tUPwJMlL-42" value="arena" style="ellipse;whiteSpace=wrap;html=1;align=center;" parent="1" vertex="1">
          <mxGeometry x="1021" y="989" width="100" height="40" as="geometry" />
        </mxCell>
        <mxCell id="fz--Rf1uVpx8tUPwJMlL-43" value="" style="endArrow=none;html=1;rounded=0;exitX=0.5;exitY=0;exitDx=0;exitDy=0;entryX=0.5;entryY=1;entryDx=0;entryDy=0;" parent="1" source="fz--Rf1uVpx8tUPwJMlL-42" target="fz--Rf1uVpx8tUPwJMlL-14" edge="1">
          <mxGeometry relative="1" as="geometry">
            <mxPoint x="1191" y="999" as="sourcePoint" />
            <mxPoint x="1351" y="999" as="targetPoint" />
            <Array as="points">
              <mxPoint x="1071" y="969" />
              <mxPoint x="1131" y="969" />
            </Array>
          </mxGeometry>
        </mxCell>
        <mxCell id="fz--Rf1uVpx8tUPwJMlL-44" value="arena_capacity" style="ellipse;whiteSpace=wrap;html=1;align=center;" parent="1" vertex="1">
          <mxGeometry x="1081" y="1049" width="100" height="40" as="geometry" />
        </mxCell>
        <mxCell id="fz--Rf1uVpx8tUPwJMlL-45" value="" style="endArrow=none;html=1;rounded=0;exitX=0.5;exitY=0;exitDx=0;exitDy=0;entryX=0.5;entryY=1;entryDx=0;entryDy=0;" parent="1" source="fz--Rf1uVpx8tUPwJMlL-44" target="fz--Rf1uVpx8tUPwJMlL-14" edge="1">
          <mxGeometry relative="1" as="geometry">
            <mxPoint x="1191" y="1009" as="sourcePoint" />
            <mxPoint x="1351" y="1009" as="targetPoint" />
          </mxGeometry>
        </mxCell>
        <mxCell id="fz--Rf1uVpx8tUPwJMlL-46" value="general_manager" style="ellipse;whiteSpace=wrap;html=1;align=center;" parent="1" vertex="1">
          <mxGeometry x="1191" y="899" width="110" height="40" as="geometry" />
        </mxCell>
        <mxCell id="fz--Rf1uVpx8tUPwJMlL-47" value="" style="endArrow=none;html=1;rounded=0;exitX=0.5;exitY=1;exitDx=0;exitDy=0;entryX=0.5;entryY=0;entryDx=0;entryDy=0;" parent="1" target="fz--Rf1uVpx8tUPwJMlL-46" edge="1">
          <mxGeometry relative="1" as="geometry">
            <mxPoint x="1131" y="714" as="sourcePoint" />
            <mxPoint x="1321" y="899" as="targetPoint" />
            <Array as="points">
              <mxPoint x="1131" y="884" />
              <mxPoint x="1246" y="884" />
            </Array>
          </mxGeometry>
        </mxCell>
        <mxCell id="fz--Rf1uVpx8tUPwJMlL-48" value="head_coach" style="ellipse;whiteSpace=wrap;html=1;align=center;" parent="1" vertex="1">
          <mxGeometry x="1196" y="989" width="100" height="40" as="geometry" />
        </mxCell>
        <mxCell id="fz--Rf1uVpx8tUPwJMlL-49" value="" style="endArrow=none;html=1;rounded=0;exitX=0.5;exitY=1;exitDx=0;exitDy=0;entryX=0.5;entryY=0;entryDx=0;entryDy=0;" parent="1" target="fz--Rf1uVpx8tUPwJMlL-48" edge="1">
          <mxGeometry relative="1" as="geometry">
            <mxPoint x="1131" y="699" as="sourcePoint" />
            <mxPoint x="1321" y="969.0000000000001" as="targetPoint" />
            <Array as="points">
              <mxPoint x="1131" y="959" />
              <mxPoint x="1246" y="959" />
            </Array>
          </mxGeometry>
        </mxCell>
        <mxCell id="APrbMAUllizUW4iNOXip-1" value="standings_data" style="ellipse;whiteSpace=wrap;html=1;align=center;fontStyle=4;" parent="1" vertex="1">
          <mxGeometry x="1547" y="729" width="100" height="40" as="geometry" />
        </mxCell>
        <mxCell id="APrbMAUllizUW4iNOXip-2" value="team_id" style="ellipse;whiteSpace=wrap;html=1;align=center;fontStyle=4;" parent="1" vertex="1">
          <mxGeometry x="1547" y="779" width="100" height="40" as="geometry" />
        </mxCell>
        <mxCell id="APrbMAUllizUW4iNOXip-3" value="win" style="ellipse;whiteSpace=wrap;html=1;align=center;" parent="1" vertex="1">
          <mxGeometry x="1307" y="729" width="100" height="40" as="geometry" />
        </mxCell>
        <mxCell id="APrbMAUllizUW4iNOXip-5" value="loss" style="ellipse;whiteSpace=wrap;html=1;align=center;" parent="1" vertex="1">
          <mxGeometry x="1307" y="779" width="100" height="40" as="geometry" />
        </mxCell>
        <mxCell id="APrbMAUllizUW4iNOXip-6" value="" style="endArrow=none;html=1;rounded=0;entryX=0.5;entryY=1;entryDx=0;entryDy=0;exitX=1;exitY=0.5;exitDx=0;exitDy=0;" parent="1" source="APrbMAUllizUW4iNOXip-3" target="fz--Rf1uVpx8tUPwJMlL-24" edge="1">
          <mxGeometry relative="1" as="geometry">
            <mxPoint x="1327" y="789" as="sourcePoint" />
            <mxPoint x="1487" y="789" as="targetPoint" />
            <Array as="points">
              <mxPoint x="1477" y="749" />
            </Array>
          </mxGeometry>
        </mxCell>
        <mxCell id="APrbMAUllizUW4iNOXip-7" value="" style="endArrow=none;html=1;rounded=0;exitX=0.5;exitY=1;exitDx=0;exitDy=0;entryX=1;entryY=0.5;entryDx=0;entryDy=0;" parent="1" source="fz--Rf1uVpx8tUPwJMlL-24" target="APrbMAUllizUW4iNOXip-5" edge="1">
          <mxGeometry relative="1" as="geometry">
            <mxPoint x="1327" y="789" as="sourcePoint" />
            <mxPoint x="1487" y="789" as="targetPoint" />
            <Array as="points">
              <mxPoint x="1477" y="799" />
            </Array>
          </mxGeometry>
        </mxCell>
        <mxCell id="APrbMAUllizUW4iNOXip-8" value="games" style="ellipse;whiteSpace=wrap;html=1;align=center;" parent="1" vertex="1">
          <mxGeometry x="1307" y="829" width="100" height="40" as="geometry" />
        </mxCell>
        <mxCell id="APrbMAUllizUW4iNOXip-9" value="" style="endArrow=none;html=1;rounded=0;exitX=0.5;exitY=1;exitDx=0;exitDy=0;entryX=1;entryY=0.5;entryDx=0;entryDy=0;" parent="1" source="fz--Rf1uVpx8tUPwJMlL-24" target="APrbMAUllizUW4iNOXip-8" edge="1">
          <mxGeometry relative="1" as="geometry">
            <mxPoint x="1327" y="789" as="sourcePoint" />
            <mxPoint x="1487" y="789" as="targetPoint" />
            <Array as="points">
              <mxPoint x="1477" y="849" />
            </Array>
          </mxGeometry>
        </mxCell>
        <mxCell id="APrbMAUllizUW4iNOXip-10" value="" style="endArrow=none;html=1;rounded=0;exitX=0.5;exitY=1;exitDx=0;exitDy=0;entryX=0;entryY=0.5;entryDx=0;entryDy=0;" parent="1" source="fz--Rf1uVpx8tUPwJMlL-24" target="APrbMAUllizUW4iNOXip-1" edge="1">
          <mxGeometry relative="1" as="geometry">
            <mxPoint x="1327" y="789" as="sourcePoint" />
            <mxPoint x="1487" y="789" as="targetPoint" />
            <Array as="points">
              <mxPoint x="1477" y="749" />
            </Array>
          </mxGeometry>
        </mxCell>
        <mxCell id="APrbMAUllizUW4iNOXip-11" value="" style="endArrow=none;html=1;rounded=0;exitX=0.5;exitY=1;exitDx=0;exitDy=0;entryX=0;entryY=0.5;entryDx=0;entryDy=0;" parent="1" source="fz--Rf1uVpx8tUPwJMlL-24" target="APrbMAUllizUW4iNOXip-2" edge="1">
          <mxGeometry relative="1" as="geometry">
            <mxPoint x="1327" y="789" as="sourcePoint" />
            <mxPoint x="1487" y="789" as="targetPoint" />
            <Array as="points">
              <mxPoint x="1477" y="799" />
            </Array>
          </mxGeometry>
        </mxCell>
        <mxCell id="APrbMAUllizUW4iNOXip-12" value="team_name" style="ellipse;whiteSpace=wrap;html=1;align=center;" parent="1" vertex="1">
          <mxGeometry x="1547" y="859" width="100" height="40" as="geometry" />
        </mxCell>
        <mxCell id="APrbMAUllizUW4iNOXip-13" value="" style="endArrow=none;html=1;rounded=0;exitX=0.5;exitY=0;exitDx=0;exitDy=0;entryX=0.5;entryY=1;entryDx=0;entryDy=0;" parent="1" source="APrbMAUllizUW4iNOXip-12" target="fz--Rf1uVpx8tUPwJMlL-24" edge="1">
          <mxGeometry relative="1" as="geometry">
            <mxPoint x="1207" y="879" as="sourcePoint" />
            <mxPoint x="1367" y="879" as="targetPoint" />
            <Array as="points">
              <mxPoint x="1597" y="849" />
              <mxPoint x="1477" y="849" />
            </Array>
          </mxGeometry>
        </mxCell>
        <mxCell id="APrbMAUllizUW4iNOXip-14" value="has_rank" style="shape=rhombus;perimeter=rhombusPerimeter;whiteSpace=wrap;html=1;align=center;" parent="1" vertex="1">
          <mxGeometry x="1270" y="659" width="120" height="60" as="geometry" />
        </mxCell>
        <mxCell id="APrbMAUllizUW4iNOXip-15" value="" style="endArrow=none;html=1;rounded=0;entryX=0;entryY=0.5;entryDx=0;entryDy=0;" parent="1" target="fz--Rf1uVpx8tUPwJMlL-24" edge="1">
          <mxGeometry relative="1" as="geometry">
            <mxPoint x="1389" y="689" as="sourcePoint" />
            <mxPoint x="1405" y="879" as="targetPoint" />
            <Array as="points" />
          </mxGeometry>
        </mxCell>
        <mxCell id="APrbMAUllizUW4iNOXip-16" value="N" style="resizable=0;html=1;whiteSpace=wrap;align=right;verticalAlign=bottom;" parent="APrbMAUllizUW4iNOXip-15" connectable="0" vertex="1">
          <mxGeometry x="1" relative="1" as="geometry">
            <mxPoint x="-6" y="-3" as="offset" />
          </mxGeometry>
        </mxCell>
        <mxCell id="APrbMAUllizUW4iNOXip-17" value="" style="endArrow=none;html=1;rounded=0;entryX=1;entryY=0.5;entryDx=0;entryDy=0;exitX=0;exitY=0.5;exitDx=0;exitDy=0;" parent="1" target="fz--Rf1uVpx8tUPwJMlL-14" edge="1">
          <mxGeometry relative="1" as="geometry">
            <mxPoint x="1271" y="689" as="sourcePoint" />
            <mxPoint x="1481" y="899" as="targetPoint" />
          </mxGeometry>
        </mxCell>
        <mxCell id="APrbMAUllizUW4iNOXip-18" value="1" style="resizable=0;html=1;whiteSpace=wrap;align=right;verticalAlign=bottom;" parent="APrbMAUllizUW4iNOXip-17" connectable="0" vertex="1">
          <mxGeometry x="1" relative="1" as="geometry">
            <mxPoint x="18" y="-6" as="offset" />
          </mxGeometry>
        </mxCell>
        <mxCell id="APrbMAUllizUW4iNOXip-22" value="" style="endArrow=none;html=1;rounded=0;exitX=0.5;exitY=1;exitDx=0;exitDy=0;entryX=0;entryY=0.5;entryDx=0;entryDy=0;" parent="1" source="fz--Rf1uVpx8tUPwJMlL-15" edge="1">
          <mxGeometry relative="1" as="geometry">
            <mxPoint x="490" y="729" as="sourcePoint" />
            <mxPoint x="710.0000000000002" y="739" as="targetPoint" />
            <Array as="points">
              <mxPoint x="620" y="739" />
            </Array>
          </mxGeometry>
        </mxCell>
        <mxCell id="APrbMAUllizUW4iNOXip-23" value="game_id" style="ellipse;whiteSpace=wrap;html=1;align=center;fontStyle=4;" parent="1" vertex="1">
          <mxGeometry x="680" y="719" width="100" height="40" as="geometry" />
        </mxCell>
        <mxCell id="APrbMAUllizUW4iNOXip-24" value="home_team_id" style="ellipse;whiteSpace=wrap;html=1;align=center;" parent="1" vertex="1">
          <mxGeometry x="462" y="719" width="100" height="40" as="geometry" />
        </mxCell>
        <mxCell id="APrbMAUllizUW4iNOXip-25" value="visitor_team_id" style="ellipse;whiteSpace=wrap;html=1;align=center;" parent="1" vertex="1">
          <mxGeometry x="462" y="769" width="100" height="40" as="geometry" />
        </mxCell>
        <mxCell id="APrbMAUllizUW4iNOXip-26" value="" style="endArrow=none;html=1;rounded=0;exitX=1;exitY=0.5;exitDx=0;exitDy=0;entryX=0.5;entryY=1;entryDx=0;entryDy=0;" parent="1" source="APrbMAUllizUW4iNOXip-24" target="fz--Rf1uVpx8tUPwJMlL-15" edge="1">
          <mxGeometry relative="1" as="geometry">
            <mxPoint x="572" y="819" as="sourcePoint" />
            <mxPoint x="732" y="819" as="targetPoint" />
            <Array as="points">
              <mxPoint x="620" y="739" />
            </Array>
          </mxGeometry>
        </mxCell>
        <mxCell id="APrbMAUllizUW4iNOXip-27" value="" style="endArrow=none;html=1;rounded=0;exitX=1;exitY=0.5;exitDx=0;exitDy=0;entryX=0.5;entryY=1;entryDx=0;entryDy=0;" parent="1" source="APrbMAUllizUW4iNOXip-25" target="fz--Rf1uVpx8tUPwJMlL-15" edge="1">
          <mxGeometry relative="1" as="geometry">
            <mxPoint x="572" y="829" as="sourcePoint" />
            <mxPoint x="732" y="829" as="targetPoint" />
            <Array as="points">
              <mxPoint x="620" y="789" />
            </Array>
          </mxGeometry>
        </mxCell>
        <mxCell id="APrbMAUllizUW4iNOXip-28" value="home_team_wins" style="ellipse;whiteSpace=wrap;html=1;align=center;" parent="1" vertex="1">
          <mxGeometry x="450" y="819" width="112" height="40" as="geometry" />
        </mxCell>
        <mxCell id="APrbMAUllizUW4iNOXip-29" value="" style="endArrow=none;html=1;rounded=0;exitX=1;exitY=0.5;exitDx=0;exitDy=0;entryX=0.5;entryY=1;entryDx=0;entryDy=0;" parent="1" source="APrbMAUllizUW4iNOXip-28" target="fz--Rf1uVpx8tUPwJMlL-15" edge="1">
          <mxGeometry relative="1" as="geometry">
            <mxPoint x="602" y="849" as="sourcePoint" />
            <mxPoint x="762" y="849" as="targetPoint" />
            <Array as="points">
              <mxPoint x="620" y="839" />
            </Array>
          </mxGeometry>
        </mxCell>
        <mxCell id="APrbMAUllizUW4iNOXip-32" value="date" style="ellipse;whiteSpace=wrap;html=1;align=center;" parent="1" vertex="1">
          <mxGeometry x="680" y="789" width="100" height="40" as="geometry" />
        </mxCell>
        <mxCell id="APrbMAUllizUW4iNOXip-33" value="" style="endArrow=none;html=1;rounded=0;exitX=0.5;exitY=1;exitDx=0;exitDy=0;entryX=0;entryY=0.5;entryDx=0;entryDy=0;" parent="1" source="fz--Rf1uVpx8tUPwJMlL-15" target="APrbMAUllizUW4iNOXip-32" edge="1">
          <mxGeometry relative="1" as="geometry">
            <mxPoint x="490" y="729" as="sourcePoint" />
            <mxPoint x="670" y="809" as="targetPoint" />
            <Array as="points">
              <mxPoint x="620" y="809" />
            </Array>
          </mxGeometry>
        </mxCell>
        <mxCell id="APrbMAUllizUW4iNOXip-34" value="pts_home" style="ellipse;whiteSpace=wrap;html=1;align=center;dashed=1;" parent="1" vertex="1">
          <mxGeometry x="462" y="869" width="100" height="40" as="geometry" />
        </mxCell>
        <mxCell id="APrbMAUllizUW4iNOXip-35" value="pts_away" style="ellipse;whiteSpace=wrap;html=1;align=center;dashed=1;" parent="1" vertex="1">
          <mxGeometry x="462" y="919" width="100" height="40" as="geometry" />
        </mxCell>
        <mxCell id="APrbMAUllizUW4iNOXip-36" value="" style="endArrow=none;html=1;rounded=0;exitX=1;exitY=0.5;exitDx=0;exitDy=0;entryX=0.5;entryY=1;entryDx=0;entryDy=0;" parent="1" source="APrbMAUllizUW4iNOXip-34" target="fz--Rf1uVpx8tUPwJMlL-15" edge="1">
          <mxGeometry relative="1" as="geometry">
            <mxPoint x="420" y="819" as="sourcePoint" />
            <mxPoint x="580" y="819" as="targetPoint" />
            <Array as="points">
              <mxPoint x="620" y="889" />
            </Array>
          </mxGeometry>
        </mxCell>
        <mxCell id="APrbMAUllizUW4iNOXip-37" value="" style="endArrow=none;html=1;rounded=0;exitX=1;exitY=0.5;exitDx=0;exitDy=0;entryX=0.5;entryY=1;entryDx=0;entryDy=0;" parent="1" source="APrbMAUllizUW4iNOXip-35" target="fz--Rf1uVpx8tUPwJMlL-15" edge="1">
          <mxGeometry relative="1" as="geometry">
            <mxPoint x="420" y="819" as="sourcePoint" />
            <mxPoint x="580" y="819" as="targetPoint" />
            <Array as="points">
              <mxPoint x="620" y="939" />
            </Array>
          </mxGeometry>
        </mxCell>
        <mxCell id="APrbMAUllizUW4iNOXip-38" value="ast_home" style="ellipse;whiteSpace=wrap;html=1;align=center;dashed=1;" parent="1" vertex="1">
          <mxGeometry x="680" y="859" width="100" height="40" as="geometry" />
        </mxCell>
        <mxCell id="APrbMAUllizUW4iNOXip-39" value="" style="endArrow=none;html=1;rounded=0;exitX=0.5;exitY=1;exitDx=0;exitDy=0;entryX=0;entryY=0.5;entryDx=0;entryDy=0;" parent="1" source="fz--Rf1uVpx8tUPwJMlL-15" target="APrbMAUllizUW4iNOXip-38" edge="1">
          <mxGeometry relative="1" as="geometry">
            <mxPoint x="470" y="849" as="sourcePoint" />
            <mxPoint x="630" y="849" as="targetPoint" />
            <Array as="points">
              <mxPoint x="620" y="879" />
            </Array>
          </mxGeometry>
        </mxCell>
        <mxCell id="APrbMAUllizUW4iNOXip-40" value="reb_home" style="ellipse;whiteSpace=wrap;html=1;align=center;dashed=1;" parent="1" vertex="1">
          <mxGeometry x="680" y="909" width="100" height="40" as="geometry" />
        </mxCell>
        <mxCell id="APrbMAUllizUW4iNOXip-41" value="" style="endArrow=none;html=1;rounded=0;exitX=0.5;exitY=1;exitDx=0;exitDy=0;entryX=0;entryY=0.5;entryDx=0;entryDy=0;" parent="1" source="fz--Rf1uVpx8tUPwJMlL-15" target="APrbMAUllizUW4iNOXip-40" edge="1">
          <mxGeometry relative="1" as="geometry">
            <mxPoint x="470" y="879" as="sourcePoint" />
            <mxPoint x="630" y="879" as="targetPoint" />
            <Array as="points">
              <mxPoint x="620" y="929" />
            </Array>
          </mxGeometry>
        </mxCell>
        <mxCell id="APrbMAUllizUW4iNOXip-42" value="ast_away" style="ellipse;whiteSpace=wrap;html=1;align=center;dashed=1;" parent="1" vertex="1">
          <mxGeometry x="680" y="969" width="100" height="40" as="geometry" />
        </mxCell>
        <mxCell id="APrbMAUllizUW4iNOXip-43" value="" style="endArrow=none;html=1;rounded=0;exitX=0.5;exitY=1;exitDx=0;exitDy=0;entryX=0;entryY=0.5;entryDx=0;entryDy=0;" parent="1" source="fz--Rf1uVpx8tUPwJMlL-15" target="APrbMAUllizUW4iNOXip-42" edge="1">
          <mxGeometry relative="1" as="geometry">
            <mxPoint x="470" y="879" as="sourcePoint" />
            <mxPoint x="630" y="879" as="targetPoint" />
            <Array as="points">
              <mxPoint x="620" y="989" />
            </Array>
          </mxGeometry>
        </mxCell>
        <mxCell id="APrbMAUllizUW4iNOXip-44" value="reb_away" style="ellipse;whiteSpace=wrap;html=1;align=center;dashed=1;" parent="1" vertex="1">
          <mxGeometry x="470" y="969" width="100" height="40" as="geometry" />
        </mxCell>
        <mxCell id="APrbMAUllizUW4iNOXip-45" value="" style="endArrow=none;html=1;rounded=0;exitX=0.5;exitY=1;exitDx=0;exitDy=0;entryX=1;entryY=0.5;entryDx=0;entryDy=0;" parent="1" source="fz--Rf1uVpx8tUPwJMlL-15" target="APrbMAUllizUW4iNOXip-44" edge="1">
          <mxGeometry relative="1" as="geometry">
            <mxPoint x="470" y="909" as="sourcePoint" />
            <mxPoint x="600" y="979" as="targetPoint" />
            <Array as="points">
              <mxPoint x="620" y="989" />
            </Array>
          </mxGeometry>
        </mxCell>
        <mxCell id="APrbMAUllizUW4iNOXip-62" value="plays_home" style="shape=rhombus;perimeter=rhombusPerimeter;whiteSpace=wrap;html=1;align=center;" parent="1" vertex="1">
          <mxGeometry x="790" y="569" width="120" height="60" as="geometry" />
        </mxCell>
        <mxCell id="APrbMAUllizUW4iNOXip-63" value="plays_visitor" style="shape=rhombus;perimeter=rhombusPerimeter;whiteSpace=wrap;html=1;align=center;" parent="1" vertex="1">
          <mxGeometry x="790" y="659" width="120" height="60" as="geometry" />
        </mxCell>
        <mxCell id="APrbMAUllizUW4iNOXip-66" value="" style="endArrow=none;html=1;rounded=0;entryX=1;entryY=0.5;entryDx=0;entryDy=0;exitX=0;exitY=0.5;exitDx=0;exitDy=0;" parent="1" source="APrbMAUllizUW4iNOXip-62" target="fz--Rf1uVpx8tUPwJMlL-15" edge="1">
          <mxGeometry relative="1" as="geometry">
            <mxPoint x="970" y="799" as="sourcePoint" />
            <mxPoint x="1130" y="799" as="targetPoint" />
            <Array as="points">
              <mxPoint x="730" y="599" />
              <mxPoint x="730" y="689" />
            </Array>
          </mxGeometry>
        </mxCell>
        <mxCell id="APrbMAUllizUW4iNOXip-67" value="N" style="resizable=0;html=1;whiteSpace=wrap;align=right;verticalAlign=bottom;" parent="APrbMAUllizUW4iNOXip-66" connectable="0" vertex="1">
          <mxGeometry x="1" relative="1" as="geometry">
            <mxPoint x="17" y="-13" as="offset" />
          </mxGeometry>
        </mxCell>
        <mxCell id="APrbMAUllizUW4iNOXip-68" value="" style="endArrow=none;html=1;rounded=0;exitX=1;exitY=0.5;exitDx=0;exitDy=0;entryX=0;entryY=0.5;entryDx=0;entryDy=0;" parent="1" source="APrbMAUllizUW4iNOXip-62" target="fz--Rf1uVpx8tUPwJMlL-14" edge="1">
          <mxGeometry relative="1" as="geometry">
            <mxPoint x="970" y="799" as="sourcePoint" />
            <mxPoint x="1130" y="799" as="targetPoint" />
            <Array as="points">
              <mxPoint x="1050" y="599" />
              <mxPoint x="1050" y="689" />
            </Array>
          </mxGeometry>
        </mxCell>
        <mxCell id="APrbMAUllizUW4iNOXip-69" value="1" style="resizable=0;html=1;whiteSpace=wrap;align=right;verticalAlign=bottom;" parent="APrbMAUllizUW4iNOXip-68" connectable="0" vertex="1">
          <mxGeometry x="1" relative="1" as="geometry">
            <mxPoint x="-5" y="-10" as="offset" />
          </mxGeometry>
        </mxCell>
        <mxCell id="APrbMAUllizUW4iNOXip-70" value="" style="endArrow=none;html=1;rounded=0;entryX=1;entryY=0.5;entryDx=0;entryDy=0;exitX=0;exitY=0.5;exitDx=0;exitDy=0;" parent="1" source="APrbMAUllizUW4iNOXip-63" target="fz--Rf1uVpx8tUPwJMlL-15" edge="1">
          <mxGeometry relative="1" as="geometry">
            <mxPoint x="820" y="539" as="sourcePoint" />
            <mxPoint x="600" y="709" as="targetPoint" />
          </mxGeometry>
        </mxCell>
        <mxCell id="APrbMAUllizUW4iNOXip-74" value="" style="endArrow=none;html=1;rounded=0;exitX=1;exitY=0.5;exitDx=0;exitDy=0;entryX=0;entryY=0.5;entryDx=0;entryDy=0;" parent="1" source="APrbMAUllizUW4iNOXip-63" target="fz--Rf1uVpx8tUPwJMlL-14" edge="1">
          <mxGeometry relative="1" as="geometry">
            <mxPoint x="970" y="799" as="sourcePoint" />
            <mxPoint x="1130" y="799" as="targetPoint" />
          </mxGeometry>
        </mxCell>
        <mxCell id="APrbMAUllizUW4iNOXip-142" value="has_member" style="shape=rhombus;perimeter=rhombusPerimeter;whiteSpace=wrap;html=1;align=center;" parent="1" vertex="1">
          <mxGeometry x="790" y="479" width="120" height="60" as="geometry" />
        </mxCell>
        <mxCell id="APrbMAUllizUW4iNOXip-143" value="" style="endArrow=none;html=1;rounded=0;exitX=1;exitY=0.5;exitDx=0;exitDy=0;entryX=0.5;entryY=0;entryDx=0;entryDy=0;" parent="1" source="APrbMAUllizUW4iNOXip-142" target="fz--Rf1uVpx8tUPwJMlL-14" edge="1">
          <mxGeometry relative="1" as="geometry">
            <mxPoint x="1030" y="529" as="sourcePoint" />
            <mxPoint x="1190" y="529" as="targetPoint" />
            <Array as="points">
              <mxPoint x="1130" y="509" />
            </Array>
          </mxGeometry>
        </mxCell>
        <mxCell id="APrbMAUllizUW4iNOXip-146" value="" style="endArrow=none;html=1;rounded=0;entryX=0.5;entryY=0;entryDx=0;entryDy=0;exitX=0;exitY=0.5;exitDx=0;exitDy=0;" parent="1" source="APrbMAUllizUW4iNOXip-142" target="APrbMAUllizUW4iNOXip-209" edge="1">
          <mxGeometry relative="1" as="geometry">
            <mxPoint x="1030" y="529" as="sourcePoint" />
            <mxPoint x="240" y="119" as="targetPoint" />
            <Array as="points">
              <mxPoint x="610" y="509" />
              <mxPoint x="610" y="39" />
              <mxPoint x="850" y="39" />
            </Array>
          </mxGeometry>
        </mxCell>
        <mxCell id="APrbMAUllizUW4iNOXip-149" value="has_details" style="shape=rhombus;perimeter=rhombusPerimeter;whiteSpace=wrap;html=1;align=center;" parent="1" vertex="1">
          <mxGeometry x="310" y="659" width="120" height="60" as="geometry" />
        </mxCell>
        <mxCell id="APrbMAUllizUW4iNOXip-150" value="" style="endArrow=none;html=1;rounded=0;entryX=0;entryY=0.5;entryDx=0;entryDy=0;exitX=1;exitY=0.5;exitDx=0;exitDy=0;" parent="1" source="APrbMAUllizUW4iNOXip-149" target="fz--Rf1uVpx8tUPwJMlL-15" edge="1">
          <mxGeometry relative="1" as="geometry">
            <mxPoint x="330" y="659" as="sourcePoint" />
            <mxPoint x="490" y="659" as="targetPoint" />
          </mxGeometry>
        </mxCell>
        <mxCell id="APrbMAUllizUW4iNOXip-151" value="1" style="resizable=0;html=1;whiteSpace=wrap;align=right;verticalAlign=bottom;" parent="APrbMAUllizUW4iNOXip-150" connectable="0" vertex="1">
          <mxGeometry x="1" relative="1" as="geometry">
            <mxPoint x="-4" y="-1" as="offset" />
          </mxGeometry>
        </mxCell>
        <mxCell id="APrbMAUllizUW4iNOXip-152" value="" style="endArrow=none;html=1;rounded=0;entryX=1;entryY=0.5;entryDx=0;entryDy=0;exitX=0;exitY=0.5;exitDx=0;exitDy=0;" parent="1" source="APrbMAUllizUW4iNOXip-149" target="fz--Rf1uVpx8tUPwJMlL-21" edge="1">
          <mxGeometry relative="1" as="geometry">
            <mxPoint x="330" y="659" as="sourcePoint" />
            <mxPoint x="490" y="659" as="targetPoint" />
          </mxGeometry>
        </mxCell>
        <mxCell id="APrbMAUllizUW4iNOXip-153" value="N" style="resizable=0;html=1;whiteSpace=wrap;align=right;verticalAlign=bottom;" parent="APrbMAUllizUW4iNOXip-152" connectable="0" vertex="1">
          <mxGeometry x="1" relative="1" as="geometry">
            <mxPoint x="20" as="offset" />
          </mxGeometry>
        </mxCell>
        <mxCell id="APrbMAUllizUW4iNOXip-154" value="game_id" style="ellipse;whiteSpace=wrap;html=1;align=center;fontStyle=4;" parent="1" vertex="1">
          <mxGeometry x="25" y="669" width="100" height="40" as="geometry" />
        </mxCell>
        <mxCell id="APrbMAUllizUW4iNOXip-155" value="" style="endArrow=none;html=1;rounded=0;exitX=1;exitY=0.5;exitDx=0;exitDy=0;entryX=0;entryY=0.5;entryDx=0;entryDy=0;" parent="1" source="APrbMAUllizUW4iNOXip-154" target="fz--Rf1uVpx8tUPwJMlL-21" edge="1">
          <mxGeometry relative="1" as="geometry">
            <mxPoint x="210" y="739" as="sourcePoint" />
            <mxPoint x="370" y="739" as="targetPoint" />
          </mxGeometry>
        </mxCell>
        <mxCell id="APrbMAUllizUW4iNOXip-156" value="team_id" style="ellipse;whiteSpace=wrap;html=1;align=center;" parent="1" vertex="1">
          <mxGeometry x="25" y="719" width="100" height="40" as="geometry" />
        </mxCell>
        <mxCell id="APrbMAUllizUW4iNOXip-164" value="player_id" style="ellipse;whiteSpace=wrap;html=1;align=center;fontStyle=4;" parent="1" vertex="1">
          <mxGeometry x="25" y="769" width="100" height="40" as="geometry" />
        </mxCell>
        <mxCell id="APrbMAUllizUW4iNOXip-165" value="min" style="ellipse;whiteSpace=wrap;html=1;align=center;" parent="1" vertex="1">
          <mxGeometry x="240" y="719" width="100" height="40" as="geometry" />
        </mxCell>
        <mxCell id="APrbMAUllizUW4iNOXip-166" value="" style="endArrow=none;html=1;rounded=0;exitX=0.5;exitY=1;exitDx=0;exitDy=0;entryX=1;entryY=0.5;entryDx=0;entryDy=0;" parent="1" source="fz--Rf1uVpx8tUPwJMlL-21" target="APrbMAUllizUW4iNOXip-156" edge="1">
          <mxGeometry relative="1" as="geometry">
            <mxPoint x="180" y="739" as="sourcePoint" />
            <mxPoint x="340" y="739" as="targetPoint" />
            <Array as="points">
              <mxPoint x="190" y="739" />
            </Array>
          </mxGeometry>
        </mxCell>
        <mxCell id="APrbMAUllizUW4iNOXip-168" value="" style="endArrow=none;html=1;rounded=0;exitX=0.5;exitY=1;exitDx=0;exitDy=0;entryX=1;entryY=0.5;entryDx=0;entryDy=0;" parent="1" source="fz--Rf1uVpx8tUPwJMlL-21" target="APrbMAUllizUW4iNOXip-164" edge="1">
          <mxGeometry relative="1" as="geometry">
            <mxPoint x="180" y="739" as="sourcePoint" />
            <mxPoint x="340" y="739" as="targetPoint" />
            <Array as="points">
              <mxPoint x="190" y="789" />
            </Array>
          </mxGeometry>
        </mxCell>
        <mxCell id="APrbMAUllizUW4iNOXip-169" value="" style="endArrow=none;html=1;rounded=0;exitX=0.5;exitY=1;exitDx=0;exitDy=0;entryX=0;entryY=0.5;entryDx=0;entryDy=0;" parent="1" source="fz--Rf1uVpx8tUPwJMlL-21" target="APrbMAUllizUW4iNOXip-165" edge="1">
          <mxGeometry relative="1" as="geometry">
            <mxPoint x="180" y="739" as="sourcePoint" />
            <mxPoint x="340" y="739" as="targetPoint" />
            <Array as="points">
              <mxPoint x="190" y="739" />
            </Array>
          </mxGeometry>
        </mxCell>
        <mxCell id="APrbMAUllizUW4iNOXip-170" value="field_goal_made" style="ellipse;whiteSpace=wrap;html=1;align=center;" parent="1" vertex="1">
          <mxGeometry x="240" y="769" width="100" height="40" as="geometry" />
        </mxCell>
        <mxCell id="APrbMAUllizUW4iNOXip-171" value="field_goal_attempt" style="ellipse;whiteSpace=wrap;html=1;align=center;" parent="1" vertex="1">
          <mxGeometry x="240" y="819" width="110" height="40" as="geometry" />
        </mxCell>
        <mxCell id="APrbMAUllizUW4iNOXip-173" value="fg3m" style="ellipse;whiteSpace=wrap;html=1;align=center;" parent="1" vertex="1">
          <mxGeometry x="245" y="869" width="100" height="40" as="geometry" />
        </mxCell>
        <mxCell id="APrbMAUllizUW4iNOXip-174" value="" style="endArrow=none;html=1;rounded=0;exitX=0.5;exitY=1;exitDx=0;exitDy=0;entryX=0;entryY=0.5;entryDx=0;entryDy=0;" parent="1" source="fz--Rf1uVpx8tUPwJMlL-21" target="APrbMAUllizUW4iNOXip-170" edge="1">
          <mxGeometry relative="1" as="geometry">
            <mxPoint x="180" y="739" as="sourcePoint" />
            <mxPoint x="340" y="739" as="targetPoint" />
            <Array as="points">
              <mxPoint x="190" y="789" />
            </Array>
          </mxGeometry>
        </mxCell>
        <mxCell id="APrbMAUllizUW4iNOXip-175" value="" style="endArrow=none;html=1;rounded=0;exitX=0.5;exitY=1;exitDx=0;exitDy=0;entryX=0;entryY=0.5;entryDx=0;entryDy=0;" parent="1" source="fz--Rf1uVpx8tUPwJMlL-21" target="APrbMAUllizUW4iNOXip-171" edge="1">
          <mxGeometry relative="1" as="geometry">
            <mxPoint x="180" y="739" as="sourcePoint" />
            <mxPoint x="340" y="739" as="targetPoint" />
            <Array as="points">
              <mxPoint x="190" y="839" />
            </Array>
          </mxGeometry>
        </mxCell>
        <mxCell id="APrbMAUllizUW4iNOXip-176" value="" style="endArrow=none;html=1;rounded=0;exitX=0.5;exitY=1;exitDx=0;exitDy=0;entryX=0;entryY=0.5;entryDx=0;entryDy=0;" parent="1" source="fz--Rf1uVpx8tUPwJMlL-21" target="APrbMAUllizUW4iNOXip-173" edge="1">
          <mxGeometry relative="1" as="geometry">
            <mxPoint x="180" y="739" as="sourcePoint" />
            <mxPoint x="340" y="739" as="targetPoint" />
            <Array as="points">
              <mxPoint x="190" y="889" />
            </Array>
          </mxGeometry>
        </mxCell>
        <mxCell id="APrbMAUllizUW4iNOXip-177" value="field_goal_3_attempt" style="ellipse;whiteSpace=wrap;html=1;align=center;" parent="1" vertex="1">
          <mxGeometry x="10" y="819" width="130" height="42" as="geometry" />
        </mxCell>
        <mxCell id="APrbMAUllizUW4iNOXip-178" value="" style="endArrow=none;html=1;rounded=0;exitX=0.5;exitY=1;exitDx=0;exitDy=0;entryX=1;entryY=0.5;entryDx=0;entryDy=0;" parent="1" source="fz--Rf1uVpx8tUPwJMlL-21" target="APrbMAUllizUW4iNOXip-177" edge="1">
          <mxGeometry relative="1" as="geometry">
            <mxPoint x="180" y="739" as="sourcePoint" />
            <mxPoint x="340" y="739" as="targetPoint" />
            <Array as="points">
              <mxPoint x="190" y="839" />
            </Array>
          </mxGeometry>
        </mxCell>
        <mxCell id="APrbMAUllizUW4iNOXip-179" value="free_throw_made" style="ellipse;whiteSpace=wrap;html=1;align=center;" parent="1" vertex="1">
          <mxGeometry x="22.5" y="869" width="110" height="40" as="geometry" />
        </mxCell>
        <mxCell id="APrbMAUllizUW4iNOXip-180" value="" style="endArrow=none;html=1;rounded=0;exitX=1;exitY=0.5;exitDx=0;exitDy=0;entryX=0.5;entryY=1;entryDx=0;entryDy=0;" parent="1" source="APrbMAUllizUW4iNOXip-179" target="fz--Rf1uVpx8tUPwJMlL-21" edge="1">
          <mxGeometry relative="1" as="geometry">
            <mxPoint x="180" y="739" as="sourcePoint" />
            <mxPoint x="340" y="739" as="targetPoint" />
            <Array as="points">
              <mxPoint x="190" y="889" />
            </Array>
          </mxGeometry>
        </mxCell>
        <mxCell id="APrbMAUllizUW4iNOXip-181" value="free_throw_attempt" style="ellipse;whiteSpace=wrap;html=1;align=center;" parent="1" vertex="1">
          <mxGeometry x="17.5" y="919" width="110" height="40" as="geometry" />
        </mxCell>
        <mxCell id="APrbMAUllizUW4iNOXip-182" value="" style="endArrow=none;html=1;rounded=0;exitX=1;exitY=0.5;exitDx=0;exitDy=0;entryX=0.5;entryY=1;entryDx=0;entryDy=0;" parent="1" source="APrbMAUllizUW4iNOXip-181" target="fz--Rf1uVpx8tUPwJMlL-21" edge="1">
          <mxGeometry relative="1" as="geometry">
            <mxPoint x="90" y="789" as="sourcePoint" />
            <mxPoint x="250" y="789" as="targetPoint" />
            <Array as="points">
              <mxPoint x="190" y="939" />
            </Array>
          </mxGeometry>
        </mxCell>
        <mxCell id="APrbMAUllizUW4iNOXip-183" value="oreb" style="ellipse;whiteSpace=wrap;html=1;align=center;" parent="1" vertex="1">
          <mxGeometry x="245" y="919" width="100" height="40" as="geometry" />
        </mxCell>
        <mxCell id="APrbMAUllizUW4iNOXip-184" value="dreb" style="ellipse;whiteSpace=wrap;html=1;align=center;" parent="1" vertex="1">
          <mxGeometry x="245" y="969" width="100" height="40" as="geometry" />
        </mxCell>
        <mxCell id="APrbMAUllizUW4iNOXip-185" value="" style="endArrow=none;html=1;rounded=0;exitX=0.5;exitY=1;exitDx=0;exitDy=0;entryX=0;entryY=0.5;entryDx=0;entryDy=0;" parent="1" source="fz--Rf1uVpx8tUPwJMlL-21" target="APrbMAUllizUW4iNOXip-183" edge="1">
          <mxGeometry relative="1" as="geometry">
            <mxPoint x="90" y="789" as="sourcePoint" />
            <mxPoint x="250" y="789" as="targetPoint" />
            <Array as="points">
              <mxPoint x="190" y="939" />
            </Array>
          </mxGeometry>
        </mxCell>
        <mxCell id="APrbMAUllizUW4iNOXip-186" value="" style="endArrow=none;html=1;rounded=0;exitX=0.5;exitY=1;exitDx=0;exitDy=0;entryX=0;entryY=0.5;entryDx=0;entryDy=0;" parent="1" source="fz--Rf1uVpx8tUPwJMlL-21" target="APrbMAUllizUW4iNOXip-184" edge="1">
          <mxGeometry relative="1" as="geometry">
            <mxPoint x="90" y="789" as="sourcePoint" />
            <mxPoint x="250" y="789" as="targetPoint" />
            <Array as="points">
              <mxPoint x="190" y="989" />
            </Array>
          </mxGeometry>
        </mxCell>
        <mxCell id="APrbMAUllizUW4iNOXip-187" value="assist" style="ellipse;whiteSpace=wrap;html=1;align=center;" parent="1" vertex="1">
          <mxGeometry x="27.5" y="969" width="100" height="40" as="geometry" />
        </mxCell>
        <mxCell id="APrbMAUllizUW4iNOXip-188" value="steal" style="ellipse;whiteSpace=wrap;html=1;align=center;" parent="1" vertex="1">
          <mxGeometry x="27.5" y="1019" width="100" height="40" as="geometry" />
        </mxCell>
        <mxCell id="APrbMAUllizUW4iNOXip-189" value="block" style="ellipse;whiteSpace=wrap;html=1;align=center;" parent="1" vertex="1">
          <mxGeometry x="245" y="1019" width="100" height="40" as="geometry" />
        </mxCell>
        <mxCell id="APrbMAUllizUW4iNOXip-190" value="" style="endArrow=none;html=1;rounded=0;exitX=1;exitY=0.5;exitDx=0;exitDy=0;entryX=0.5;entryY=1;entryDx=0;entryDy=0;" parent="1" source="APrbMAUllizUW4iNOXip-187" target="fz--Rf1uVpx8tUPwJMlL-21" edge="1">
          <mxGeometry relative="1" as="geometry">
            <mxPoint x="140" y="869" as="sourcePoint" />
            <mxPoint x="300" y="869" as="targetPoint" />
            <Array as="points">
              <mxPoint x="190" y="989" />
            </Array>
          </mxGeometry>
        </mxCell>
        <mxCell id="APrbMAUllizUW4iNOXip-191" value="" style="endArrow=none;html=1;rounded=0;exitX=1;exitY=0.5;exitDx=0;exitDy=0;entryX=0.5;entryY=1;entryDx=0;entryDy=0;" parent="1" source="APrbMAUllizUW4iNOXip-188" target="fz--Rf1uVpx8tUPwJMlL-21" edge="1">
          <mxGeometry relative="1" as="geometry">
            <mxPoint x="140" y="869" as="sourcePoint" />
            <mxPoint x="300" y="869" as="targetPoint" />
            <Array as="points">
              <mxPoint x="190" y="1039" />
            </Array>
          </mxGeometry>
        </mxCell>
        <mxCell id="APrbMAUllizUW4iNOXip-192" value="" style="endArrow=none;html=1;rounded=0;exitX=0;exitY=0.5;exitDx=0;exitDy=0;entryX=0.5;entryY=1;entryDx=0;entryDy=0;" parent="1" source="APrbMAUllizUW4iNOXip-189" target="fz--Rf1uVpx8tUPwJMlL-21" edge="1">
          <mxGeometry relative="1" as="geometry">
            <mxPoint x="140" y="869" as="sourcePoint" />
            <mxPoint x="300" y="869" as="targetPoint" />
            <Array as="points">
              <mxPoint x="190" y="1039" />
            </Array>
          </mxGeometry>
        </mxCell>
        <mxCell id="APrbMAUllizUW4iNOXip-193" value="turnover" style="ellipse;whiteSpace=wrap;html=1;align=center;" parent="1" vertex="1">
          <mxGeometry x="27.5" y="1069" width="100" height="40" as="geometry" />
        </mxCell>
        <mxCell id="APrbMAUllizUW4iNOXip-194" value="" style="endArrow=none;html=1;rounded=0;exitX=1;exitY=0.5;exitDx=0;exitDy=0;entryX=0.5;entryY=1;entryDx=0;entryDy=0;" parent="1" source="APrbMAUllizUW4iNOXip-193" target="fz--Rf1uVpx8tUPwJMlL-21" edge="1">
          <mxGeometry relative="1" as="geometry">
            <mxPoint x="140" y="869" as="sourcePoint" />
            <mxPoint x="300" y="869" as="targetPoint" />
            <Array as="points">
              <mxPoint x="190" y="1089" />
            </Array>
          </mxGeometry>
        </mxCell>
        <mxCell id="APrbMAUllizUW4iNOXip-196" value="personal_foul" style="ellipse;whiteSpace=wrap;html=1;align=center;" parent="1" vertex="1">
          <mxGeometry x="240" y="1069" width="100" height="40" as="geometry" />
        </mxCell>
        <mxCell id="APrbMAUllizUW4iNOXip-197" value="" style="endArrow=none;html=1;rounded=0;entryX=0;entryY=0.5;entryDx=0;entryDy=0;exitX=0.5;exitY=1;exitDx=0;exitDy=0;" parent="1" source="fz--Rf1uVpx8tUPwJMlL-21" target="APrbMAUllizUW4iNOXip-196" edge="1">
          <mxGeometry relative="1" as="geometry">
            <mxPoint x="140" y="869" as="sourcePoint" />
            <mxPoint x="300" y="869" as="targetPoint" />
            <Array as="points">
              <mxPoint x="190" y="1089" />
            </Array>
          </mxGeometry>
        </mxCell>
        <mxCell id="APrbMAUllizUW4iNOXip-198" value="player_has_details" style="shape=rhombus;perimeter=rhombusPerimeter;whiteSpace=wrap;html=1;align=center;" parent="1" vertex="1">
          <mxGeometry x="418" y="429" width="130" height="60" as="geometry" />
        </mxCell>
        <mxCell id="APrbMAUllizUW4iNOXip-199" value="" style="endArrow=none;html=1;rounded=0;exitX=0.5;exitY=0;exitDx=0;exitDy=0;entryX=0;entryY=0.5;entryDx=0;entryDy=0;" parent="1" source="fz--Rf1uVpx8tUPwJMlL-21" target="APrbMAUllizUW4iNOXip-198" edge="1">
          <mxGeometry x="0.8824" y="10" relative="1" as="geometry">
            <mxPoint x="480" y="669" as="sourcePoint" />
            <mxPoint x="640" y="669" as="targetPoint" />
            <Array as="points">
              <mxPoint x="190" y="500" />
              <mxPoint x="190" y="459" />
            </Array>
            <mxPoint as="offset" />
          </mxGeometry>
        </mxCell>
        <mxCell id="APrbMAUllizUW4iNOXip-200" value="1" style="resizable=0;html=1;whiteSpace=wrap;align=right;verticalAlign=bottom;" parent="1" connectable="0" vertex="1">
          <mxGeometry x="270" y="699" as="geometry">
            <mxPoint x="-63" y="-31" as="offset" />
          </mxGeometry>
        </mxCell>
        <mxCell id="APrbMAUllizUW4iNOXip-201" value="" style="endArrow=none;html=1;rounded=0;entryX=0.5;entryY=0;entryDx=0;entryDy=0;exitX=0.5;exitY=0;exitDx=0;exitDy=0;" parent="1" source="APrbMAUllizUW4iNOXip-209" target="APrbMAUllizUW4iNOXip-198" edge="1">
          <mxGeometry relative="1" as="geometry">
            <mxPoint x="480" y="119" as="sourcePoint" />
            <mxPoint x="410" y="559" as="targetPoint" />
            <Array as="points">
              <mxPoint x="850" y="39" />
              <mxPoint x="480" y="39" />
            </Array>
          </mxGeometry>
        </mxCell>
        <mxCell id="APrbMAUllizUW4iNOXip-209" value="Player" style="whiteSpace=wrap;html=1;align=center;" parent="1" vertex="1">
          <mxGeometry x="800" y="49" width="100" height="40" as="geometry" />
        </mxCell>
        <mxCell id="APrbMAUllizUW4iNOXip-210" value="player_id" style="ellipse;whiteSpace=wrap;html=1;align=center;fontStyle=4;" parent="1" vertex="1">
          <mxGeometry x="960" y="49" width="100" height="40" as="geometry" />
        </mxCell>
        <mxCell id="APrbMAUllizUW4iNOXip-211" value="" style="endArrow=none;html=1;rounded=0;" parent="1" edge="1">
          <mxGeometry relative="1" as="geometry">
            <mxPoint x="900" y="69" as="sourcePoint" />
            <mxPoint x="960" y="69" as="targetPoint" />
          </mxGeometry>
        </mxCell>
        <mxCell id="APrbMAUllizUW4iNOXip-212" value="player_name" style="ellipse;whiteSpace=wrap;html=1;align=center;" parent="1" vertex="1">
          <mxGeometry x="650" y="109" width="100" height="40" as="geometry" />
        </mxCell>
        <mxCell id="APrbMAUllizUW4iNOXip-213" value="player_height" style="ellipse;whiteSpace=wrap;html=1;align=center;" parent="1" vertex="1">
          <mxGeometry x="650" y="169" width="100" height="40" as="geometry" />
        </mxCell>
        <mxCell id="APrbMAUllizUW4iNOXip-214" value="player_weight" style="ellipse;whiteSpace=wrap;html=1;align=center;" parent="1" vertex="1">
          <mxGeometry x="650" y="219" width="100" height="40" as="geometry" />
        </mxCell>
        <mxCell id="APrbMAUllizUW4iNOXip-215" value="country" style="ellipse;whiteSpace=wrap;html=1;align=center;" parent="1" vertex="1">
          <mxGeometry x="650" y="49" width="100" height="40" as="geometry" />
        </mxCell>
        <mxCell id="APrbMAUllizUW4iNOXip-216" value="college" style="ellipse;whiteSpace=wrap;html=1;align=center;" parent="1" vertex="1">
          <mxGeometry x="950" y="109" width="100" height="40" as="geometry" />
        </mxCell>
        <mxCell id="APrbMAUllizUW4iNOXip-217" value="draft_year" style="ellipse;whiteSpace=wrap;html=1;align=center;" parent="1" vertex="1">
          <mxGeometry x="950" y="169" width="100" height="40" as="geometry" />
        </mxCell>
        <mxCell id="APrbMAUllizUW4iNOXip-218" value="draft_round" style="ellipse;whiteSpace=wrap;html=1;align=center;" parent="1" vertex="1">
          <mxGeometry x="950" y="219" width="100" height="40" as="geometry" />
        </mxCell>
        <mxCell id="APrbMAUllizUW4iNOXip-219" value="draft_number" style="ellipse;whiteSpace=wrap;html=1;align=center;" parent="1" vertex="1">
          <mxGeometry x="950" y="279" width="100" height="40" as="geometry" />
        </mxCell>
        <mxCell id="APrbMAUllizUW4iNOXip-220" value="" style="endArrow=none;html=1;rounded=0;exitX=1;exitY=0.5;exitDx=0;exitDy=0;entryX=0;entryY=0.5;entryDx=0;entryDy=0;" parent="1" source="APrbMAUllizUW4iNOXip-215" target="APrbMAUllizUW4iNOXip-209" edge="1">
          <mxGeometry relative="1" as="geometry">
            <mxPoint x="850" y="9" as="sourcePoint" />
            <mxPoint x="1030" y="329" as="targetPoint" />
          </mxGeometry>
        </mxCell>
        <mxCell id="APrbMAUllizUW4iNOXip-221" value="" style="endArrow=none;html=1;rounded=0;exitX=0;exitY=0.5;exitDx=0;exitDy=0;entryX=0.5;entryY=1;entryDx=0;entryDy=0;" parent="1" source="APrbMAUllizUW4iNOXip-216" target="APrbMAUllizUW4iNOXip-209" edge="1">
          <mxGeometry relative="1" as="geometry">
            <mxPoint x="870" y="319" as="sourcePoint" />
            <mxPoint x="860" y="99" as="targetPoint" />
            <Array as="points">
              <mxPoint x="850" y="129" />
            </Array>
          </mxGeometry>
        </mxCell>
        <mxCell id="APrbMAUllizUW4iNOXip-222" value="" style="endArrow=none;html=1;rounded=0;entryX=0;entryY=0.5;entryDx=0;entryDy=0;exitX=0.5;exitY=1;exitDx=0;exitDy=0;" parent="1" edge="1">
          <mxGeometry relative="1" as="geometry">
            <mxPoint x="850" y="89" as="sourcePoint" />
            <mxPoint x="950.0000000000002" y="189" as="targetPoint" />
            <Array as="points">
              <mxPoint x="850" y="189" />
            </Array>
          </mxGeometry>
        </mxCell>
        <mxCell id="APrbMAUllizUW4iNOXip-223" value="" style="endArrow=none;html=1;rounded=0;entryX=0;entryY=0.5;entryDx=0;entryDy=0;exitX=0.5;exitY=1;exitDx=0;exitDy=0;" parent="1" source="APrbMAUllizUW4iNOXip-209" target="APrbMAUllizUW4iNOXip-218" edge="1">
          <mxGeometry relative="1" as="geometry">
            <mxPoint x="810" y="209" as="sourcePoint" />
            <mxPoint x="970" y="209" as="targetPoint" />
            <Array as="points">
              <mxPoint x="850" y="239" />
            </Array>
          </mxGeometry>
        </mxCell>
        <mxCell id="APrbMAUllizUW4iNOXip-224" value="" style="endArrow=none;html=1;rounded=0;entryX=0;entryY=0.5;entryDx=0;entryDy=0;exitX=0.5;exitY=1;exitDx=0;exitDy=0;" parent="1" source="APrbMAUllizUW4iNOXip-209" target="APrbMAUllizUW4iNOXip-219" edge="1">
          <mxGeometry relative="1" as="geometry">
            <mxPoint x="810" y="209" as="sourcePoint" />
            <mxPoint x="970" y="209" as="targetPoint" />
            <Array as="points">
              <mxPoint x="850" y="299" />
            </Array>
          </mxGeometry>
        </mxCell>
        <mxCell id="APrbMAUllizUW4iNOXip-225" value="" style="endArrow=none;html=1;rounded=0;exitX=1;exitY=0.5;exitDx=0;exitDy=0;entryX=0.5;entryY=1;entryDx=0;entryDy=0;" parent="1" source="APrbMAUllizUW4iNOXip-212" target="APrbMAUllizUW4iNOXip-209" edge="1">
          <mxGeometry relative="1" as="geometry">
            <mxPoint x="770" y="219" as="sourcePoint" />
            <mxPoint x="930" y="219" as="targetPoint" />
            <Array as="points">
              <mxPoint x="850" y="129" />
            </Array>
          </mxGeometry>
        </mxCell>
        <mxCell id="APrbMAUllizUW4iNOXip-226" value="" style="endArrow=none;html=1;rounded=0;exitX=1;exitY=0.5;exitDx=0;exitDy=0;entryX=0.5;entryY=1;entryDx=0;entryDy=0;" parent="1" source="APrbMAUllizUW4iNOXip-213" target="APrbMAUllizUW4iNOXip-209" edge="1">
          <mxGeometry relative="1" as="geometry">
            <mxPoint x="770" y="219" as="sourcePoint" />
            <mxPoint x="930" y="219" as="targetPoint" />
            <Array as="points">
              <mxPoint x="850" y="189" />
            </Array>
          </mxGeometry>
        </mxCell>
        <mxCell id="APrbMAUllizUW4iNOXip-227" value="" style="endArrow=none;html=1;rounded=0;exitX=1;exitY=0.5;exitDx=0;exitDy=0;entryX=0.5;entryY=1;entryDx=0;entryDy=0;" parent="1" source="APrbMAUllizUW4iNOXip-214" target="APrbMAUllizUW4iNOXip-209" edge="1">
          <mxGeometry relative="1" as="geometry">
            <mxPoint x="770" y="219" as="sourcePoint" />
            <mxPoint x="930" y="219" as="targetPoint" />
            <Array as="points">
              <mxPoint x="850" y="239" />
            </Array>
          </mxGeometry>
        </mxCell>
        <mxCell id="APrbMAUllizUW4iNOXip-228" value="" style="endArrow=none;html=1;rounded=0;exitX=1;exitY=0.5;exitDx=0;exitDy=0;entryX=0.5;entryY=1;entryDx=0;entryDy=0;" parent="1" target="APrbMAUllizUW4iNOXip-209" edge="1">
          <mxGeometry relative="1" as="geometry">
            <mxPoint x="749.9999999999984" y="299" as="sourcePoint" />
            <mxPoint x="980" y="309" as="targetPoint" />
            <Array as="points">
              <mxPoint x="850" y="299" />
            </Array>
          </mxGeometry>
        </mxCell>
        <mxCell id="APrbMAUllizUW4iNOXip-229" value="" style="endArrow=none;html=1;rounded=0;exitX=1;exitY=0.5;exitDx=0;exitDy=0;entryX=0.5;entryY=1;entryDx=0;entryDy=0;" parent="1" target="APrbMAUllizUW4iNOXip-209" edge="1">
          <mxGeometry relative="1" as="geometry">
            <mxPoint x="750" y="349" as="sourcePoint" />
            <mxPoint x="980" y="309" as="targetPoint" />
            <Array as="points">
              <mxPoint x="850" y="349" />
            </Array>
          </mxGeometry>
        </mxCell>
        <mxCell id="APrbMAUllizUW4iNOXip-230" value="game_played" style="ellipse;whiteSpace=wrap;html=1;align=center;dashed=1;" parent="1" vertex="1">
          <mxGeometry x="950" y="339" width="100" height="40" as="geometry" />
        </mxCell>
        <mxCell id="APrbMAUllizUW4iNOXip-231" value="points" style="ellipse;whiteSpace=wrap;html=1;align=center;dashed=1;" parent="1" vertex="1">
          <mxGeometry x="950" y="399" width="100" height="40" as="geometry" />
        </mxCell>
        <mxCell id="APrbMAUllizUW4iNOXip-232" value="rebounds" style="ellipse;whiteSpace=wrap;html=1;align=center;dashed=1;" parent="1" vertex="1">
          <mxGeometry x="650" y="379" width="100" height="40" as="geometry" />
        </mxCell>
        <mxCell id="APrbMAUllizUW4iNOXip-233" value="assists" style="ellipse;whiteSpace=wrap;html=1;align=center;dashed=1;" parent="1" vertex="1">
          <mxGeometry x="650" y="429" width="100" height="40" as="geometry" />
        </mxCell>
        <mxCell id="APrbMAUllizUW4iNOXip-234" value="" style="endArrow=none;html=1;rounded=0;exitX=1;exitY=0.5;exitDx=0;exitDy=0;entryX=0.5;entryY=1;entryDx=0;entryDy=0;" parent="1" source="APrbMAUllizUW4iNOXip-232" target="APrbMAUllizUW4iNOXip-209" edge="1">
          <mxGeometry relative="1" as="geometry">
            <mxPoint x="880" y="279" as="sourcePoint" />
            <mxPoint x="1040" y="279" as="targetPoint" />
            <Array as="points">
              <mxPoint x="850" y="399" />
            </Array>
          </mxGeometry>
        </mxCell>
        <mxCell id="APrbMAUllizUW4iNOXip-235" value="" style="endArrow=none;html=1;rounded=0;exitX=0.5;exitY=1;exitDx=0;exitDy=0;entryX=0;entryY=0.5;entryDx=0;entryDy=0;" parent="1" source="APrbMAUllizUW4iNOXip-209" target="APrbMAUllizUW4iNOXip-230" edge="1">
          <mxGeometry relative="1" as="geometry">
            <mxPoint x="880" y="279" as="sourcePoint" />
            <mxPoint x="1040" y="279" as="targetPoint" />
            <Array as="points">
              <mxPoint x="850" y="359" />
            </Array>
          </mxGeometry>
        </mxCell>
        <mxCell id="APrbMAUllizUW4iNOXip-236" value="" style="endArrow=none;html=1;rounded=0;exitX=1;exitY=0.5;exitDx=0;exitDy=0;entryX=0.5;entryY=1;entryDx=0;entryDy=0;" parent="1" source="APrbMAUllizUW4iNOXip-233" target="APrbMAUllizUW4iNOXip-209" edge="1">
          <mxGeometry relative="1" as="geometry">
            <mxPoint x="880" y="279" as="sourcePoint" />
            <mxPoint x="1040" y="279" as="targetPoint" />
            <Array as="points">
              <mxPoint x="850" y="449" />
            </Array>
          </mxGeometry>
        </mxCell>
        <mxCell id="APrbMAUllizUW4iNOXip-237" value="" style="endArrow=none;html=1;rounded=0;exitX=0;exitY=0.5;exitDx=0;exitDy=0;entryX=0.5;entryY=1;entryDx=0;entryDy=0;" parent="1" source="APrbMAUllizUW4iNOXip-231" target="APrbMAUllizUW4iNOXip-209" edge="1">
          <mxGeometry relative="1" as="geometry">
            <mxPoint x="880" y="279" as="sourcePoint" />
            <mxPoint x="1040" y="279" as="targetPoint" />
            <Array as="points">
              <mxPoint x="850" y="419" />
            </Array>
          </mxGeometry>
        </mxCell>
        <mxCell id="APrbMAUllizUW4iNOXip-238" value="season" style="ellipse;whiteSpace=wrap;html=1;align=center;fontStyle=4;" parent="1" vertex="1">
          <mxGeometry x="650" y="279" width="100" height="40" as="geometry" />
        </mxCell>
        <mxCell id="APrbMAUllizUW4iNOXip-239" value="team_id" style="ellipse;whiteSpace=wrap;html=1;align=center;" parent="1" vertex="1">
          <mxGeometry x="650" y="329" width="100" height="40" as="geometry" />
        </mxCell>
        <mxCell id="APrbMAUllizUW4iNOXip-240" value="N" style="resizable=0;html=1;whiteSpace=wrap;align=right;verticalAlign=bottom;" parent="1" connectable="0" vertex="1">
          <mxGeometry x="868" y="51" as="geometry" />
        </mxCell>
        <mxCell id="APrbMAUllizUW4iNOXip-241" value="team_has_details" style="shape=rhombus;perimeter=rhombusPerimeter;whiteSpace=wrap;html=1;align=center;" parent="1" vertex="1">
          <mxGeometry x="418" y="529" width="121" height="60" as="geometry" />
        </mxCell>
        <mxCell id="APrbMAUllizUW4iNOXip-242" value="" style="endArrow=none;html=1;rounded=0;exitX=0.5;exitY=0;exitDx=0;exitDy=0;entryX=0;entryY=0.5;entryDx=0;entryDy=0;" parent="1" source="fz--Rf1uVpx8tUPwJMlL-21" target="APrbMAUllizUW4iNOXip-241" edge="1">
          <mxGeometry relative="1" as="geometry">
            <mxPoint x="540" y="630" as="sourcePoint" />
            <mxPoint x="700" y="630" as="targetPoint" />
            <Array as="points">
              <mxPoint x="190" y="580" />
              <mxPoint x="190" y="559" />
            </Array>
          </mxGeometry>
        </mxCell>
        <mxCell id="APrbMAUllizUW4iNOXip-244" value="" style="endArrow=none;html=1;rounded=0;entryX=0.5;entryY=0;entryDx=0;entryDy=0;exitX=1;exitY=0.5;exitDx=0;exitDy=0;" parent="1" source="APrbMAUllizUW4iNOXip-241" target="fz--Rf1uVpx8tUPwJMlL-14" edge="1">
          <mxGeometry relative="1" as="geometry">
            <mxPoint x="550" y="590" as="sourcePoint" />
            <mxPoint x="700" y="630" as="targetPoint" />
            <Array as="points">
              <mxPoint x="1131" y="560" />
            </Array>
          </mxGeometry>
        </mxCell>
        <mxCell id="APrbMAUllizUW4iNOXip-245" value="N" style="resizable=0;html=1;whiteSpace=wrap;align=right;verticalAlign=bottom;" parent="APrbMAUllizUW4iNOXip-244" connectable="0" vertex="1">
          <mxGeometry x="1" relative="1" as="geometry">
            <mxPoint x="-2" as="offset" />
          </mxGeometry>
        </mxCell>
      </root>
    </mxGraphModel>
  </diagram>
</mxfile>
